<?xml version="1.0" encoding="utf-8"?>
<!-- Generator: Adobe Illustrator 16.0.0, SVG Export Plug-In . SVG Version: 6.00 Build 0)  -->
<!DOCTYPE svg PUBLIC "-//W3C//DTD SVG 1.1//EN" "http://www.w3.org/Graphics/SVG/1.1/DTD/svg11.dtd">
<svg version="1.1" id="Layer_1" xmlns="http://www.w3.org/2000/svg" xmlns:xlink="http://www.w3.org/1999/xlink" x="0px" y="0px"
	 width="40px" height="66.4px" viewBox="275.659 387.745 40 66.4" enable-background="new 275.659 387.745 40 66.4"
	 xml:space="preserve">
<metadata><?xpacket begin="﻿" id="W5M0MpCehiHzreSzNTczkc9d"?>
<x:xmpmeta xmlns:x="adobe:ns:meta/" x:xmptk="Adobe XMP Core 5.3-c011 66.145661, 2012/02/06-14:56:27        ">
   <rdf:RDF xmlns:rdf="http://www.w3.org/1999/02/22-rdf-syntax-ns#">
      <rdf:Description rdf:about=""
            xmlns:xmp="http://ns.adobe.com/xap/1.0/"
            xmlns:xmpGImg="http://ns.adobe.com/xap/1.0/g/img/">
         <xmp:CreatorTool>Adobe Illustrator CS6 (Macintosh)</xmp:CreatorTool>
         <xmp:CreateDate>2015-11-13T17:00:54Z</xmp:CreateDate>
         <xmp:Thumbnails>
            <rdf:Alt>
               <rdf:li rdf:parseType="Resource">
                  <xmpGImg:width>156</xmpGImg:width>
                  <xmpGImg:height>256</xmpGImg:height>
                  <xmpGImg:format>JPEG</xmpGImg:format>
                  <xmpGImg:image>/9j/4AAQSkZJRgABAgEASABIAAD/7QAsUGhvdG9zaG9wIDMuMAA4QklNA+0AAAAAABAASAAAAAEA&#xA;AQBIAAAAAQAB/+4ADkFkb2JlAGTAAAAAAf/bAIQABgQEBAUEBgUFBgkGBQYJCwgGBggLDAoKCwoK&#xA;DBAMDAwMDAwQDA4PEA8ODBMTFBQTExwbGxscHx8fHx8fHx8fHwEHBwcNDA0YEBAYGhURFRofHx8f&#xA;Hx8fHx8fHx8fHx8fHx8fHx8fHx8fHx8fHx8fHx8fHx8fHx8fHx8fHx8fHx8f/8AAEQgBAACcAwER&#xA;AAIRAQMRAf/EAaIAAAAHAQEBAQEAAAAAAAAAAAQFAwIGAQAHCAkKCwEAAgIDAQEBAQEAAAAAAAAA&#xA;AQACAwQFBgcICQoLEAACAQMDAgQCBgcDBAIGAnMBAgMRBAAFIRIxQVEGE2EicYEUMpGhBxWxQiPB&#xA;UtHhMxZi8CRygvElQzRTkqKyY3PCNUQnk6OzNhdUZHTD0uIIJoMJChgZhJRFRqS0VtNVKBry4/PE&#xA;1OT0ZXWFlaW1xdXl9WZ2hpamtsbW5vY3R1dnd4eXp7fH1+f3OEhYaHiImKi4yNjo+Ck5SVlpeYmZ&#xA;qbnJ2en5KjpKWmp6ipqqusra6voRAAICAQIDBQUEBQYECAMDbQEAAhEDBCESMUEFURNhIgZxgZEy&#xA;obHwFMHR4SNCFVJicvEzJDRDghaSUyWiY7LCB3PSNeJEgxdUkwgJChgZJjZFGidkdFU38qOzwygp&#xA;0+PzhJSktMTU5PRldYWVpbXF1eX1RlZmdoaWprbG1ub2R1dnd4eXp7fH1+f3OEhYaHiImKi4yNjo&#xA;+DlJWWl5iZmpucnZ6fkqOkpaanqKmqq6ytrq+v/aAAwDAQACEQMRAD8A9U4q7FXYq7FXYql2seYt&#xA;G0eL1NRukhJFVjrWRv8AVQVY/dlWXNCH1FjKYHNgmr/nGByTSbGvhPcnb/kWh/42zXZO0/5o+bRL&#xA;P3MTv/zC83XpPLUHgQ9EtwIqf7JQG/HMKetyy6/JqOWR6pJcajqFySbi6mmJ6+pIzfrJyiU5HmWB&#xA;JQ+QQqQ3FxCawyvGfFGK/qwiRHJNptZec/NVmQYNTnIHRZH9Vf8AgZOQy+OqyR5SLIZJDqyfS/zh&#xA;1aEhdStIrpO7x1if5n7Sn7hmXj7TkPqFtsc56s50Lz55b1grHBc+hctsLa4pG5Pgu5VvoObDFrMc&#xA;+R3826OUFkOZTY7FXYq7FXYq7FXYq7FXYqp3Nzb2sD3FxIsMEY5SSOQFA9ycEpACygmnmHmr815p&#xA;C9poA9OLo184+Nv+Man7PzO/yzUajtEnaHzceefuedz3E9xM008jSzOavI5LMT7k75qzIk2XHJU8&#xA;CHYq7FXYq7FXYq7FXYqy7yx+ZGtaOUguWN9YCg9KQ/vEH+Q53+g7fLM3T66cNjuG6GUh65ofmDSt&#xA;btBc6fMJFG0kZ2kQ+Dr2/Vm7xZo5BcXKjIS5JjlrJ2KuxV2KuxV2KoPVtWsdJsZL6+kEcEY+lj2V&#xA;R3JyGTIICzyRKQAsvEvN3nTUfMNyQxMOnoawWgO3+s9PtN+rtnP6nVSyn+j3OFPIZMdzFa3Yq7FX&#xA;Yq7FXYq7FXYq7FXYq7FUZpOr6hpN6l5YTGKZOtOjDurDuDlmPLKBuLKMiDs9u8n+c7HzFa/DSG/i&#xA;A+sWxP8Aw6eK1+7vm/02qGUf0nMx5BJkOZTY7FXYq7FVO5uYLW3kuLhxHBCpeSRugUCpOCUgBZQT&#xA;Twrzp5uufMOolgSmnwki0gPh05t/lN+HTOd1WpOWX9Ho4WSfEWO5itbsVdirsVXBHYVVSRULUDue&#xA;gw0lGy6DrUUUcr2M4jlRpEPBj8KEhiQBtTievzyZwzAuinhKD9Cb0zJ6bempAZ6HiC1aVPvTIUUU&#xA;3b29xczJBbxtNNIaJGgLMT7AYxiSaCgL7yxvbKX0buCS3loDwkUqaEVGx+eGUDE0RSkEKGRQ7FXY&#xA;q7FUVpmp3umX0V7ZSGK4iNVYdCO4I7g9xk8eQwNjmyBINh7z5W8yWnmDSkvIfglHwXMFd45B1HyP&#xA;UHOj0+cZI2HNhPiFpxl7N2KuxV5Z+a/moyTDQLR/3UdHvmH7T9Vj/wBj1Pv8s0/aOos8A+LjZ59H&#xA;m+apxnYq7FXYqnvlHy1ca1qsEbQSvYLKqXkkdBxBBbckin2f8zTMnTYDkkNturZCFl67Y+RtGsLS&#xA;8trP1I47wRllchwrxbq61FevXf5UzdQ0kIggdXKGMDkyHMpsQOq6Np+qWptbyPlCXSRlU05GM1Ab&#xA;xHtleTFGYosZRBQuk+UfL+lXDXNpZxrcM7usxFWTmTslfsAKePw9shj00IGwN0RgA35j8tabrlqI&#xA;7uIPLCJDbuKAhnjKdfCpDU8QMc+COQbrOAk8K1fRb3SZbeO7ChrmBLmLia/BJWlagbilDnO5MRhV&#xA;9RbhSiQgMrYuxV2KuxVP/JfmaXQNZjuCSbOakd5GO6E/aA8U6j7u+ZOlz+HO+nVsxz4S96jkSSNZ&#xA;I2DI4DIw3BB3BGdGDbnLsKpd5i1iLR9GutRkoTCh9NT+1IdkX6WIyrNl4IGTGcqFvnm4nmuJ5J5m&#xA;LzSsXkc9SzGpP35zEiSbLgEqeBDsVdiqeeW/LFxrHqS7raoTE0yEH05WUmNpF3YR8vtNTbMjBpzP&#xA;3fj7GyELe3aDa3MNgkl7HEmpTUN7JCNpHUcFevuijOgwxIjv9XVzIjbdMctZOxV2KuxV2KpT5j8t&#xA;adrtibe6RfUVWW2npUxFqVZRUfyjKM+COQUWE4CQeZal+VuoWpunS5UQwCWVGkVqehEteTOgYB2O&#xA;wWnvmpn2fIXv/Y45wkMHzXtDsVdirsVex/lRr5vtGfTZmrcaeQI69TC32f8AgTUfKmb3s7NxQ4Tz&#xA;j9zmYJWKZxmwbnmf5x6vQWOko3WtzOPbdI/+Ns1PaeTlH4uNnl0eYZqHGdirsVTryjpNjq2txWN7&#xA;64gkVyWtxV1KrUEjhJttTpmRpsYnOjdeTPHEE0Xr/lvyTp+gTSTWUsweQMjBn5I61qhdKD4l6bfx&#xA;zd4NLHGbDlwxiPJkWZTY7FXYq7FXYq7FXYqhNT0mw1SBbe+jE0CuJDEfssQCBX765DJjjMUeSDEH&#xA;mwb8yfJumfo99XtR9Xnt1WNbaGNQj1etaKK1+Imua7XaWPDxDamjLjFW8ozTOK7FXYqyT8vtXOm+&#xA;arNi3GG5b6tN4Ul2WvyficytFk4Mg89mzFKpPd86Nzng/wCYV+b3zdqDVqkDi3QeHpAK3/DA5zmt&#xA;nxZT8nBym5FjmYrW7FVa1s7q7lWK3jaR2IUAdKsaAVOwqclGJJoJAt7HonkTSw1lqfC403U4I0We&#xA;GB+CeoqAN1U8g3U0ND375vMWkjtLeMg5ccY58izLM9udirsVdirsVdirsVdirsVYz5581DRdOMVq&#xA;xbVrkUtY1XkQK7uR4AdPE5iavUeHGh9R5NeSdDzeJ31hfWkiC8haCSdBMisApKP0bj2BzQTgY8w4&#xA;RBHNDZBDsVbR2R1dCVZSCrDqCOmEFL6H/TCf4a/TFRx+p/Wvb+750zpvF/d8flbn8W1vn/Ubg3Oo&#xA;XVwTUzTSSV/1mJ/jnNzlciXAJ3Q+QQ7FWVfl5PrI1Z7fTjFLHKtbqxnYBJowaGnIEVWtczNEZ8VR&#xA;+Xe24rvZ7gteIrsabitfxzoXNbxV2KuxV2KuxV2KuxV2KuxVoohIYqCymqkjcGlNvoxpWK/mRoM2&#xA;raD/AKNGjXNu4lDO3CiBTyoSQKn3zC12EzhtzDVljYeH5z7hOxV2KvVvr7f8qc9Wvxej9X670+se&#xA;lT/gc3PH/gt/D7acq/3bynNM4rsVdir1r8tfJ9smlR6lqEEck8zia0f4uaKKdTWm5XpTN1odMOHi&#xA;kPc5eHHtZeg5s292KuxV2KuxV2KuxV2KuxV2KuxVjfn6yv77QjZ2RdJJXHqSiRYoljUEv6zH9inb&#xA;xzE1kZShQ/Hva8oJFB4VInCRkqG4kjkpqDTuD4ZzxDhLcCHYq9E/8o3/AM9/+xjNp/yF+P6XI/yb&#xA;z+4hMNxLCesbsh/2JpmskKNNBU8CE78mXum2PmG1vNRZVtrclyzczRh9kgRqxJr0HTMjSyjGYMuQ&#xA;bMZAO732Fo3iR4qem4DKVpQht6im2dIOTnL8KuxV2KuxV2KuxV2KuxV2KuxV2KtMKgj7vnirwHzn&#xA;oZ0XXprQzNcclWb1nXiWMgqx22+1XpnNarF4c6u3ByRopHmO1uxV6b9TP/Kme/P++pt0+tf8075t&#xA;uH/BPx3uTX7thnnOyNn5q1OAigM7yKP8mX94v4NmDqo8OSQ82nIKkUlzHYL4vS9VPW5elyHqcKcu&#xA;Nd+Ndq0wir3S948neZdO1qydbC3lt4LLhCiy7/Dx2AarVpTx8M6PS545B6RQDm45gjZkGZLY7FXY&#xA;q7FXYq7FXYq7FXYq7FXYq7FXlv5q+V4bdV1xLgl5ZBFNHKWdnZuTLwO4UKopx2FB49dP2hpwPXbj&#xA;ZodXm2apxnYq95/Qrf4B/RVP3v6P4U/4t9Ov/E86Pwv3PD/Rc7h9FeTB/wA4dLMOrWmpKPguovTc&#xA;/wCXEep+asPuzX9p46kJd7Tnjvbz7NY47sVZr5B86y6RFJprL6xuZoharI6xwx8iwld3O46qemZ+&#xA;j1XB6e/k34slbPT7rzTo1rpk2oTXCtBBwDtF8fJpEV0CU68g2xzby1EBEyJ2DkGYAti+pfmkrvbW&#xA;Wi2oudRuuKAMw9NZJRSNQ3whiGYcug7V75iT7Q5CAuRazm6BPv0/eaPoQ1DzKEinooaC2+Nqk0Pe&#xA;n7QrQ0Hia5keMYQ4sn2M+KhclXTPOvlvU53htLxWkjUuwYGP4VBLN8fHZab5LHqsczQKRkBQV7+Z&#xA;Hli30/60k/rylarapT1a8uNCDsKH36ZXPXYxG7+DE5Y0l/lz80rXV9Wh06Wxa2af4Y5g4cF6VoV4&#xA;rQGnWpyvB2gJyESKtEM1mmbyOEjZz0UE/cK5nktyE1PWLDTrK4u7mZFjth+8BIrypyVPHk1RQZDJ&#xA;ljEEnogyAChofmPTNY06O9tpVAZayRMaMjbAqa06E0r3yOLPGcbCIzBFsX8x/mfZafqFp+jimoWx&#xA;SQXSI3GjFl4kEqTVQre2+YefXiMhw+odWqeYA7Mv0vWdM1S2juLK4SVZFDcQw5LUVoy9QczseWMx&#xA;YLcJA8mK+cvzIttIkksNPUT6hG3GUtQxKCpruD9oNSozD1WuEPTHeTVky1sHlmp+Ydb1RVS/vZZ4&#xA;1pxiZqIOIoDwFFrTvSuafJmnP6jbimRPNLsqYpt5V0s6p5hsbLjySSVWmH/FafG//Cg5dp8fHMBn&#xA;CNmn0LnTuex7z5oR1jy3cwRryuYP9ItgOpeMH4R/rKSMxdZi48ZHXm15Y2Hguc44LsVdirsVXRyS&#xA;RyLJGxSRCGR1NCCNwQR0Iwg0lMtT8za1qcax31wZwqlBUAbM4kPQDuo+jLcmec/qLIzJ5pfBcT28&#xA;olgkaKQVAdSQdxQ7jKhIjcMQVPAhlH5badNeebbR0U+la8p5nHQBVIX72IGZmhgZZR5NuIXJ7ddw&#xA;me1mgB4mVGQN4cgRXN/IWCHML551iTW47ye11SWdrlXAnSZ2YlkHFWNT8Xw9D4ZzOUzBIlduBK+q&#xA;X5Uxdiqta3d1aTrcWszwTpukkbFWH0jJRkYmwkGlOSSSSRpJGLyOSzuxqSTuSSepOAm1W4EOxV6f&#xA;+T+hELda1Kv2v9Htq+AoZG/UPvzb9mYecz7nJwR6vTM2zkuxV4Z+Ynl/9D+YZWjWlpe1nt6dASfj&#xA;T/Yt+BGc9rcPBPyLhZY0WL5htTsVdirsVdirsVVIZEjarxLKP5XLAf8ACMpwgpT/AEnz3rGkW5g0&#xA;6K2t42NW4xVZj/lMxLH6TmTj1c4Co0GcchHJHf8AK1vN3+/If+RQ/rln8o5fJl40kq1zzfqetxhd&#xA;Qit5HXZJliCyKOtAwNae3TKcuplk+qmMshPNI8x2t2KuxV2KuxVEafYXGoX0FlbLynuHEcY7VY9T&#xA;7DqclCBkQBzKQLNPojSdNg0zTbawgH7q2jCA0pUjqx92O5zqMcBCIiOjsIihSLyaXYqxf8xdA/S/&#xA;l2UxJyu7Ks8FOpAHxr9K9vEDMPW4ePH5hqyxsPDM55wnYq7FXYq7FXYq7FXYq7FXYq7FXYq7FXYq&#xA;7FXpH5Q+X/UuJ9bmX4YawWlf52H7xh8lPH6Tm17Nw2TM/BycEer1PNw5LsVdirsVeDefPL/6F8wz&#xA;xRrS1uP39tToFcmq/wCxao+Wc5rMPhzI6FwcsaLHcxWt2KuxV2KuxV2KuxV2KuxV2KuxV2KuxVVt&#xA;LWe7uobWBec87rHGo7sxoMlGJkaCQLfRGh6VBpOk2unw/Yt0Clh+03V2/wBkxJzp8WMQiIjo58Y0&#xA;KR2WMnYq7FXYqxD8zfL/AOk/L7XMScrvT6zJTqY/92L9w5fRmDr8PHCxzi1Zo2HieaBwnYq7FXYq&#xA;7FXYq7FXYq7FXYq7FXYq7FXoP5R+X/rOoTazMtYrP93b17yuNz/sVP45s+zcNy4z0cjBHe3rWbpy&#xA;nYq7FXYq7FXEAggioOxBxV4B5z0FtE8wXFoBS3c+tanxicmg/wBiar9Gc1qsPhzI6ODkjwlI8x2t&#xA;2KuxV2KuxV2KuxV2KuxV2KuxVfDDLPNHDEpeWVgkaDqWY0AHzOEAk0EvoXy3osWjaLa6elOUSAzM&#xA;P2pG3dv+C6e2dPgxeHARc+EaFJnlrJ2KuxV2KuxV2KsJ/NTy+L/QxqMS1udOqzU6mFvt/wDA/a+/&#xA;Nf2hh4ocQ5xac0bFvGs0ThuxV2KuxV2KuxV2KuxV2KuxV2Ks6/Kjy/8AXdYfVJlrBp4/d16GZweP&#xA;/Ajf7s2PZ2HinxHlFvwRs29hzeOW7FXYq7FXYq7FXYqtkjSSNo5FDI4Kup3BB2IOAi1fPnmnQ5NE&#xA;1y5sGB9NW527H9qJt0P8D75zOoxeHMxcCcaNJTlLB2KuxV2KuxV2KuxV2KuxVtEZ3VEBZ2ICqNyS&#xA;egGEBL6C8o6EuiaDbWNAJuPqXJHeV9239vsj2GdLpsPhwAc6EaFJxl7N2KuxV2KuxV2KuxV2KsC/&#xA;Nry+LvSo9XhWs9ieM1Ophc/8aNv9JzW9o4eKPEOY+5ozxsW8hzSOI7FXYq7FXYq7FXYq7FXYqzP8&#xA;rvL/AOkde+uyrW206khr0Mpr6Y+ihb6Mz+z8PFOzyi3YY2be0ZvnMdirsVdirsVdirsVdirsVWXE&#xA;ENxBJbzKHhlUpIh6FWFCPuwSAIoqQ+ePMGjzaNrFzp0tSYX/AHbn9pDujfSpzmM2IwkYl18o0aS7&#xA;KmLsVdirsVdirsVdirgCTQdcVe++SNAGieXre2deN1KPWuvH1HH2T/qii50mkw+HADr1c/HGgn2Z&#xA;LN2KuxV2KuxV2KuxV2KuxV2KvO/zd0D1rOHWoV/eW1IbmneNj8DH/VY0+nNX2lhsCY6OPnj1eUZp&#xA;nFdirsVdirsVdirsVZZ+WugfpXzFHNItbWwpPLXoWB/dr9LCvyGZuhw8c76Btwxsvb86BzXYq7FX&#xA;Yq7FXYq7FXYq7FXYq7FVG9s7e9tJrS4XnBOjRyL/AJLChyMoiQIPVBFvnbWNLuNK1O50+4/vbdyh&#xA;PTkOqsPZloc5jLjMJGJ6OBIUaQeVsXYq7FXYq7FXYq92/L7y+NH8uwiReN3d0nua9QWHwr/sV/Gu&#xA;dFo8PBjHeXOxRoMlzLbHYq7FXYq7FXYq7FXYq7FXYq7FXYq80/N7y/VINchXdaQXdPA7xv8Af8J+&#xA;jNT2lh5THxcbPHq8vzUOM7FXYq7FXYqyX8v/AC+dZ8xQrItbS0pPc16EKfhT/ZN+Fcy9Hh45juDb&#xA;ijZe7Z0TmuxV2KuxV2KuxV2KuxV2KuxV2KuxV2KoXVNOt9S064sbgVhuEKN7V6Ee4O4yGSAlExPV&#xA;BFinzvqNhcaffz2VwvGe3cxuO1Qeo9j1GcxOBjIg9HXkUaQ2QQ7FXYq7FXt/5a+XxpXl5J5V43d/&#xA;SeWvUJT92v8AwO/050Ghw8EL6lzcMaDLMzW12KuxV2KuxV2KuxV2KuxV2KuxV2KuxV2KvLfze8v+&#xA;nPBrkK/DNSC6p/OB+7b6VFPoGaftLDuJj4uNnj1ebZqnGdirsVT7yToB1vzBb2zLW1iPrXR7emhH&#xA;w/7I0XMnS4fEmB06tmONl76AAKDYDOkc52KuxV2KuxV2KuxV2KuxV2KuxV2KuxV2KuxVA63pUGra&#xA;Tc6fN9i4QqG/lbqrf7FgDleXGJxMT1YyjYp873drPaXU1rOvCeB2jkU9mU0OcxKJiaLgEUpZFDsV&#xA;e0flb5fGnaD9elWl1qNJN+ohH92Pp+19Izfdn4eGHEecnMwxoWzPM9udirsVdirsVdirsVdirsVd&#xA;irsVdirsVdirsVdiryb83PL/ANX1CHWYV/dXdIrinaVB8J/2SD8M0vaWGpcY6uLnjvbz3NY46ceU&#xA;tCfW9etrEA+iW9S5bwiTdvv+yPc5fpsPiTAZwjZp9BIiIiogCooAVRsABsAM6YBz28VdirsVdirs&#xA;VdirsVdirsVdirsVdirsVdirsVdiqW+ZNFi1nRbrT5KcpUrEx/ZkXdG+/r7ZVnxDJAxYzjYp88zQ&#xA;ywTSQyqUliYpIh6hlNCD8jnMEEGi4D178p/L4s9HfVJlpcX5/d16iFDQf8E2/wAqZu+zsPDHiPMu&#xA;VgjQtnWbFvdirsVdirsVdirsVdirsVdirsVdirsVdirsVdirsVdirzHzp5GmvfOVnJbKRbao3+ks&#xA;o2jaMVkb/ZIKjxOajVaQyyiuUnGyY7l73pcMMUEMcMShIolCRoOgVRQAfIZtgABQclfhV2KuxV2K&#xA;uxV2KuxV2KuxV//Z</xmpGImg:image>
               </rdf:li>
            </rdf:Alt>
         </xmp:Thumbnails>
         <xmp:MetadataDate>2015-11-13T17:00:55Z</xmp:MetadataDate>
         <xmp:ModifyDate>2015-11-13T17:00:55Z</xmp:ModifyDate>
      </rdf:Description>
      <rdf:Description rdf:about=""
            xmlns:xmpTPg="http://ns.adobe.com/xap/1.0/t/pg/"
            xmlns:stDim="http://ns.adobe.com/xap/1.0/sType/Dimensions#"
            xmlns:xmpG="http://ns.adobe.com/xap/1.0/g/">
         <xmpTPg:MaxPageSize rdf:parseType="Resource">
            <stDim:w>40.000000</stDim:w>
            <stDim:h>66.400391</stDim:h>
            <stDim:unit>Points</stDim:unit>
         </xmpTPg:MaxPageSize>
         <xmpTPg:NPages>1</xmpTPg:NPages>
         <xmpTPg:HasVisibleTransparency>False</xmpTPg:HasVisibleTransparency>
         <xmpTPg:HasVisibleOverprint>False</xmpTPg:HasVisibleOverprint>
         <xmpTPg:PlateNames>
            <rdf:Seq>
               <rdf:li>Cyan</rdf:li>
               <rdf:li>Magenta</rdf:li>
               <rdf:li>Yellow</rdf:li>
               <rdf:li>Black</rdf:li>
            </rdf:Seq>
         </xmpTPg:PlateNames>
         <xmpTPg:SwatchGroups>
            <rdf:Seq>
               <rdf:li rdf:parseType="Resource">
                  <xmpG:groupName>Default Swatch Group</xmpG:groupName>
                  <xmpG:groupType>0</xmpG:groupType>
               </rdf:li>
            </rdf:Seq>
         </xmpTPg:SwatchGroups>
      </rdf:Description>
      <rdf:Description rdf:about=""
            xmlns:dc="http://purl.org/dc/elements/1.1/">
         <dc:format>image/svg+xml</dc:format>
      </rdf:Description>
      <rdf:Description rdf:about=""
            xmlns:xmpMM="http://ns.adobe.com/xap/1.0/mm/"
            xmlns:stEvt="http://ns.adobe.com/xap/1.0/sType/ResourceEvent#">
         <xmpMM:DerivedFrom rdf:parseType="Resource"/>
         <xmpMM:DocumentID>xmp.did:0180117407206811822AAFE4C6D857D0</xmpMM:DocumentID>
         <xmpMM:InstanceID>xmp.iid:0180117407206811822AAFE4C6D857D0</xmpMM:InstanceID>
         <xmpMM:OriginalDocumentID>xmp.did:0180117407206811822AAFE4C6D857D0</xmpMM:OriginalDocumentID>
         <xmpMM:History>
            <rdf:Seq>
               <rdf:li rdf:parseType="Resource">
                  <stEvt:action>saved</stEvt:action>
                  <stEvt:instanceID>xmp.iid:0180117407206811822AAFE4C6D857D0</stEvt:instanceID>
                  <stEvt:when>2015-11-13T17:00:55Z</stEvt:when>
                  <stEvt:softwareAgent>Adobe Illustrator CS6 (Macintosh)</stEvt:softwareAgent>
                  <stEvt:changed>/</stEvt:changed>
               </rdf:li>
            </rdf:Seq>
         </xmpMM:History>
      </rdf:Description>
   </rdf:RDF>
</x:xmpmeta>





















<?xpacket end="w"?>
	</metadata>
<g>
	<circle fill="#74A43F" cx="295.659" cy="407.745" r="20"/>
	<polygon fill="#74A43F" points="295.659,454.145 278.139,417.425 313.179,417.425 	"/>
</g>
<g id="XMLID_2_">
	<g id="XMLID_3_">
		<path id="XMLID_17_" fill="#FFFFFF" d="M297.819,411.265c0.08,0.16,0.24,0,0.24,0"/>
		<path id="XMLID_16_" fill="#FFFFFF" d="M294.459,411.265c0.399,0.479,1.04,0.88,1.439,0.96c0.32,0.16,0.4,0,0.32-0.16
			c0-0.16,0-0.56,0-0.56"/>
		<path id="XMLID_15_" fill="#FFFFFF" d="M299.419,412.544c-0.32,0.48-0.721,0.561-0.96,0.721c-0.16,0.16-0.16,0.319-0.16,0.319
			s0,0.16,0,0.561c0,0.16,0,1.12,0,1.2c0,0.88,0.56,1.279,0.56,1.279s0.4,0.32,0.801,0.561c0,0,0.319,0.16,0.479,0.24h-6.64
			c0.319-0.08,0.399-0.08,0.56-0.08s0.32,0,0.48,0c0.159,0,0.239-0.08,0.319-0.08c0.16,0,0.32-0.16,0.4-0.24s0.24-0.32,0.4-0.4
			c0,0,0.159-0.319,0.239-0.56c0,0,0.24-0.56,0.16-1.76c0,0,0-0.24-0.16-0.32c-0.08-0.08-0.8-0.56-1.359-0.88
			c0,0-0.801-0.48-1.12-0.96"/>
		<g id="XMLID_4_">
			<path id="XMLID_14_" fill="#FFFFFF" d="M294.698,411.584L294.698,411.584L294.698,411.584z"/>
			<path id="XMLID_13_" fill="#FFFFFF" d="M297.179,412.544L297.179,412.544L297.179,412.544z"/>
			<path id="XMLID_5_" fill="#FFFFFF" d="M291.179,412.225L291.179,412.225 M291.179,411.985L291.179,411.985L291.179,411.985
				L291.179,411.985L291.179,411.985 M291.259,411.905L291.259,411.905L291.259,411.905L291.259,411.905
				C291.179,411.825,291.179,411.825,291.259,411.905c0-0.08,0.08-0.08,0.16-0.08l0,0l0,0l0,0c-0.08,0-0.08-0.08-0.16-0.16
				c0,0,0-0.08-0.08-0.08l0,0l0,0c0,0,0,0,0,0.08l0,0l0,0c0,0,0,0,0.08,0l0,0l0,0l0,0v-0.08l0,0l0,0l0,0l0,0l0,0c0,0,0,0,0.08,0l0,0
				l0,0l0,0l0,0h0.08c0,0,0.08,0,0.16,0l0,0l0,0v-0.08l0,0c0,0,0.079,0,0.159,0l0,0l0,0c0,0,0-0.08-0.08-0.08l0,0h0.08l0,0l0,0
				c0,0,0,0,0.08,0.08l0,0c0,0-0.08,0.08,0,0.08c0.08,0.08,0.08,0.08,0.16,0.08l0.08,0.08l0,0l0.08-0.08l0,0c0,0,0,0,0,0.08l0,0
				l0.08-0.08l0,0c0,0,0,0.08,0.08,0.08c0,0,0,0,0.08,0c0,0,0,0,0,0.08s0,0.08,0,0.16l0,0c0,0,0.079,0,0.159-0.08l0,0
				c0,0,0,0.08,0.08,0.08s0.16,0,0.16,0c0.08,0,0.08,0,0.16,0.08l0,0v-0.08l0,0l0,0h0.08l0,0l0,0l0,0h0.08l0,0c0,0,0,0,0-0.08l0,0
				h0.08c0,0,0.079,0.08,0.159,0.08s0.16,0,0.16,0c0.08,0,0.08,0,0.16,0l0,0l0,0l-0.08-0.08l0,0c0.08,0,0.08,0,0.16,0l0,0l0,0
				c0,0,0-0.08-0.08-0.08h0.08l0,0l0,0c0,0,0,0-0.08,0l0,0c0.08,0,0.08,0,0.16,0l0,0l0,0c-0.08,0-0.08-0.08-0.16-0.08l0,0
				c0,0,0.08,0,0.08-0.08s0-0.08,0-0.16c0,0,0-0.08,0.08-0.08l0,0l0,0c-0.08,0-0.16,0-0.16,0s-0.08,0-0.16,0l0,0l0,0v-0.08l0,0l0,0
				l0,0l0,0v-0.08l0,0c0,0,0.08,0,0.08,0.08l0,0l0,0l0,0c0,0,0,0,0-0.08c0,0,0,0,0.08,0l0,0l0,0c0,0,0,0,0,0.08l0,0l0,0
				c0,0,0,0,0.08-0.08l0,0l0,0l0.08,0.08l0,0l0,0l0,0l0,0c0,0,0,0,0,0.08l0,0c0,0,0,0,0-0.08h0.08l0,0l0,0c0,0.08,0,0.08,0.08,0.08
				v0.08l0,0l0,0c0,0,0.079-0.08,0.159-0.08s0.08,0,0.16-0.08l0,0c0,0,0,0,0,0.08l0,0h0.08c0,0,0,0.08,0.08,0.16v0.08l0,0
				c0,0,0,0,0.08,0c0.08,0.08,0.16,0.08,0.16,0.08s0.16,0.08,0.16,0.16l0,0l0,0l0,0c0-0.08,0-0.08,0.079-0.16c0,0,0.08,0,0.08,0.08
				l0,0l0,0l0,0c0-0.08,0.08-0.16,0.08-0.24l0,0l0.08,0.08v0.08l0,0l0,0c0,0,0.08,0,0.16-0.08c0,0,0,0,0.08,0l0,0c0,0,0,0,0,0.08
				v0.08c0,0.08,0,0.08,0.08,0.08c0,0,0,0.08,0,0.16l0,0l0,0c0.08,0,0.08-0.08,0.159-0.08c0.08,0,0.08,0,0.16-0.08v0.08l0,0
				l0.08-0.08c0.08,0.08,0.08,0.08,0.16,0.08l0,0l0,0l0,0l0,0l0,0l0.08,0.08l0,0l0,0l0,0c0,0,0,0,0-0.08c0,0,0,0,0.08,0l0,0l0,0
				c0,0.08,0,0.08,0,0.08s0,0.08-0.08,0.08l0,0c0.08,0,0.08,0,0.16,0s0.08,0,0.239,0c0.08,0,0.08,0,0.08,0l0,0l0.08,0.08l0,0l0,0
				l0,0l0.08-0.08l0,0l0,0l0,0l0,0l0,0c0,0,0,0,0-0.08c0,0,0.08,0,0.08,0.08l0,0l0,0c0,0,0,0,0,0.08l0,0h0.08l0,0l0,0l0.08,0.08
				l0.08,0.079l0,0l0.08-0.079l0,0l0,0l0,0l0,0l0,0c0.079,0,0.079,0.079,0.079,0.079l0.08,0.08l0,0l0,0c0,0,0-0.08,0.08-0.159l0,0
				c0,0,0.08,0,0.08,0.079l0,0l0,0c0,0,0-0.079,0.08-0.159c0,0,0-0.08,0.08-0.08c0.08,0.08,0.08,0.08,0.24,0.08
				c0.08,0,0.16,0,0.24,0s0.159,0,0.239,0.08l0,0l0,0l-0.08-0.08c0.08,0,0.16,0,0.16,0l0,0l0,0c-0.08-0.08-0.08-0.16-0.08-0.24
				s0-0.08,0-0.08l0.08,0.08l0.08,0.08l0,0l0.08-0.08l0,0l0,0l0,0l0,0c0.08,0,0.08,0,0.08,0s0.08,0,0.16,0.08l0,0c0,0,0-0.08,0-0.16
				l0,0c0,0,0.08,0,0.08,0.08l0,0c0,0,0-0.08,0-0.16s0-0.08,0.08-0.16c0,0,0,0,0-0.08l0,0l0,0l0,0l0,0l0,0l0,0c0,0,0.08,0,0.159,0
				l0,0l0,0c-0.079,0-0.079-0.08-0.159-0.08l0,0l0,0l0.08-0.08l0,0l0,0c-0.08,0-0.08,0-0.16,0l0,0v-0.08l0,0c0,0,0.08,0,0.08,0.08
				l0,0v-0.08c0,0,0,0,0.08,0c0,0,0,0,0.079,0c0,0,0,0,0,0.08s0,0.08,0,0.16l0,0 M297.499,411.584c0,0,0.08,0,0.08,0.08l0,0v0.08
				l0,0h-0.08C297.499,411.665,297.499,411.665,297.499,411.584L297.499,411.584z M298.139,412.145L298.139,412.145
				C298.139,412.145,298.219,412.145,298.139,412.145C298.219,412.145,298.219,412.145,298.139,412.145
				C298.219,412.145,298.219,412.145,298.139,412.145C298.219,412.145,298.139,412.145,298.139,412.145z M299.419,411.745
				c0,0-0.08,0-0.08-0.08c-0.08,0-0.16,0-0.16,0h-0.08c0,0,0,0,0-0.08l0,0l0,0l0,0l0,0l0,0v-0.08l0,0c0,0,0,0.08,0.08,0.08
				s0.16,0.08,0.16,0.08S299.339,411.745,299.419,411.745z M293.739,411.105L293.739,411.105L293.739,411.105L293.739,411.105z
				 M293.579,411.185C293.499,411.265,293.499,411.265,293.579,411.185c-0.08,0.08-0.16,0.08-0.16,0.08l0,0l0,0v-0.08l0,0
				c0,0,0,0.08-0.08,0.08l0,0c0-0.08,0.08-0.08,0.08-0.08h0.08C293.579,411.185,293.579,411.185,293.579,411.185L293.579,411.185
				C293.499,411.185,293.499,411.185,293.579,411.185z"/>
		</g>
	</g>
</g>
<g id="XMLID_416_">
	<path id="XMLID_417_" fill="#FFFFFF" d="M294.619,413.745h-0.08h-0.08c0,0,0,0,0-0.08c0,0,0,0,0-0.08h0.08v-0.079c0,0,0,0,0-0.08
		h-0.08l0,0l-0.08,0.08l-0.08,0.079l0,0l-0.08,0.08c0,0,0,0-0.08,0.08c0,0.08-0.08,0.08-0.08,0.08l0,0h0.16v0.08c0,0,0.08,0,0,0
		s0,0-0.08,0s-0.08,0-0.08,0s0-0.08-0.08-0.08c0,0,0,0-0.08,0s-0.08,0-0.08,0l0,0v0.08c0,0,0,0,0,0.08l0,0c-0.079,0,0,0-0.079,0
		l-0.08,0.16c0,0-0.08,0,0,0s0.08,0,0.08,0v0.08l0,0l-0.08,0.08h-0.08l0,0h-0.08h-0.08v-0.08v-0.08h0.08l0,0l-0.08-0.08h-0.08
		c0,0,0,0,0-0.08h-0.08v0.08v0.08l0,0l-0.08,0.08l-0.08,0.08v0.08l-0.08,0.079c0,0,0,0-0.079,0l-0.08-0.079v-0.08v-0.08h-0.08
		c0,0,0,0-0.08,0l-0.08-0.08v-0.08c0,0,0.08,0-0.08,0s-0.16,0-0.08-0.08c0-0.08,0.16-0.16,0.16-0.16l0,0h-0.08v0.08h-0.08h-0.08
		v-0.08v-0.08h-0.08v0.08v0.08l0,0c0,0,0,0,0,0.08s0,0,0,0.08s0,0,0,0.08c0,0,0,0,0,0.08s0,0.08,0,0.08l0,0c0,0.08,0,0.08,0,0.08
		s0,0,0,0.079c0,0.08,0,0.08,0,0.08s0.08,0,0,0c-0.079,0-0.079,0-0.079,0l0,0c0-0.08,0-0.08,0-0.08l0,0c0,0,0,0-0.08,0
		s-0.08,0-0.08,0s0,0-0.08,0s0-0.079,0-0.079h0.08l0,0c0,0,0.08,0,0.08-0.08s0,0,0-0.08c0,0,0,0-0.08-0.08c0-0.08,0-0.08,0-0.08
		v-0.08v0.08c0,0,0,0,0,0.08s0,0.08,0,0.08l0,0l-0.08,0.08l0,0c0,0,0,0,0,0.08c0,0.079,0,0.079,0,0.079v0.08v0.08v0.08l0,0
		l0.08,0.08l0.08,0.08v0.08h-0.08l0,0v0.08c0,0.08,0,0.08,0,0.08l0,0l0,0h-0.08v-0.08c0,0,0,0,0-0.08v-0.08h-0.08c0,0,0,0,0-0.08
		v-0.08c0,0,0,0-0.08-0.08s0,0,0,0v0.08l0,0v0.08l0,0l0,0h-0.08c0,0-0.08,0,0-0.08c0-0.08,0-0.08,0-0.08l0,0c0,0,0,0,0-0.08
		s0,0,0-0.08l0,0c0,0,0,0-0.08,0l0,0c0,0,0,0-0.08,0c0-0.079,0,0,0-0.079c0,0,0,0,0-0.08s0,0,0,0l0.08-0.08h0.08h0.08l0,0l0,0l0,0
		c0,0,0,0,0-0.08s0,0,0-0.08s-0.08,0-0.08,0l0,0v-0.08l0,0l-0.08,0.08v0.08c0,0.08,0,0.08-0.08,0.08s0,0-0.08,0s-0.08,0-0.08,0
		s0,0-0.079,0c-0.08,0,0,0,0,0l0,0v0.08l0,0v0.08l0,0h-0.08l0,0c0-0.08,0,0,0-0.08s0.08,0,0-0.08c-0.24-0.32-0.24-0.32-0.24-0.32
		l0,0c0,0.08,0,0,0,0.08s0,0.08,0,0.08v0.08v0.08c0,0,0,0-0.08,0.08c0,0,0,0.08,0,0s0,0,0-0.08v-0.08c0,0,0,0,0-0.08h-0.08l0,0
		h-0.08l-0.16,0.08c0,0-0.079,0-0.159,0l-0.08,0.08h-0.08c0,0,0,0,0-0.08s0,0,0-0.08l0,0l0,0c0-0.08-0.08,0-0.08-0.08v-0.08
		c0,0,0.08,0,0.08-0.08c0,0,0,0.08,0,0s0-0.08,0-0.08l-0.08-0.08v0.16l0,0v0.08v0.08c0,0,0,0-0.08,0s-0.08,0-0.08,0s0,0-0.08,0
		s-0.08,0-0.08,0s-0.08,0-0.08-0.08v-0.08l0,0h-0.08v0.08v0.08l0,0l0,0l0,0l0,0l0,0l0,0l-0.159,0.16l0,0c0,0,0.08,0,0,0.08
		c-0.08,0-0.08,0.08-0.08,0.08s0-0.08,0,0s0,0,0,0.08c0,0.079,0,0.079,0,0.079v0.08c0,0.08,0,0.16,0,0.16v0.08l0.08,0.08v0.08v0.08
		l0,0v0.08v0.08v0.08v0.08l0,0c0,0,0,0-0.08-0.08c0-0.08,0,0,0-0.08s0,0,0-0.08c0,0,0,0,0-0.08s0-0.08,0-0.08s0,0,0-0.08
		c0,0,0,0.08,0,0s0,0,0-0.08c0,0,0,0-0.08-0.08l0,0c0-0.08,0-0.08,0-0.08v-0.08c0,0,0.08,0,0-0.08c-0.08,0-0.08,0-0.08,0l0,0h-0.08
		v0.08v0.08l0,0l0,0c0,0,0,0,0,0.08s0,0.08,0,0.08l0,0c0,0,0,0,0,0.08l0,0v0.08l0,0l0,0l0,0l0,0c0,0,0,0,0-0.08c0,0,0,0,0-0.08
		s0.08-0.08,0-0.08c0,0,0,0-0.08,0h-0.08l0,0h-0.08v0.08v0.08v0.08v0.08v0.08l-0.08,0.08v0.08l-0.079,0.08l-0.08-0.08v-0.08h-0.08
		l0,0h-0.08l0,0c0,0,0,0,0-0.08v-0.08l0,0l0,0l0,0l0,0l0,0c0-0.08,0-0.08,0-0.08v-0.08v-0.08l-0.08,0.08l0,0l0,0c0,0,0,0-0.08,0.08
		l0,0c0,0,0,0-0.08,0.08v0.08c0,0,0,0-0.08,0.08s-0.08,0-0.08,0l0,0l0,0c0,0,0,0,0-0.08l0,0c0,0,0,0,0-0.08c0,0,0,0,0-0.08
		s0-0.08,0-0.08h-0.08c0,0,0,0-0.079,0c-0.08,0-0.08,0-0.08,0l0,0c0,0,0,0-0.08,0s0-0.08,0-0.08v-0.08c0,0,0,0,0-0.08s0-0.08,0-0.08
		s0,0,0-0.08c0,0,0,0,0-0.079c0,0,0,0,0-0.08c0,0,0-0.08,0.08-0.08l0,0l0,0l0,0c0.08,0,0.08,0,0.08,0h0.079c0,0,0,0,0.08,0
		s0.08,0,0.08,0h0.08c0,0,0.08,0.08,0.08,0s0-0.08,0-0.08l0,0c0-0.08,0,0,0-0.08l0,0v-0.08c0,0,0.08-0.08,0.16-0.08h0.08
		c0,0,0,0,0.08,0s0.08,0,0.08,0l0,0c0-0.08,0-0.08,0-0.08l0.079-0.08c0,0,0.08,0,0.08-0.08c0,0,0.08,0,0.08-0.08
		c0-0.079,0,0,0-0.079c0-0.08,0,0,0-0.08v-0.08l-0.16-0.08l0,0l0,0v0.08l0,0v0.08c0,0,0,0-0.079,0.08l0,0l-0.08,0.079v0.08h-0.08
		c0-0.08,0,0,0-0.08c0-0.079,0,0,0-0.079c0-0.08,0,0,0.08-0.08c0,0,0.08,0,0.08-0.08l0,0c0,0,0.079,0,0,0c-0.08,0-0.08,0-0.08,0l0,0
		l0,0l-0.08,0.08l0,0h-0.08l0,0c0,0,0,0,0,0.08c0,0.079,0,0.079,0,0.079h-0.08l0,0c0,0,0,0,0-0.079c0,0,0,0,0-0.08
		c0.08,0,0,0,0.08,0c0.08-0.08,0,0,0.08-0.08c0-0.08,0-0.08,0-0.08l0,0c0,0-0.08,0-0.08,0.08l0,0c0,0,0,0-0.08,0l0,0l0,0
		c0,0,0,0,0-0.08c-0.08-0.08-0.08-0.08-0.08-0.08s0,0,0,0.08l0,0c0,0.08-0.08,0.08-0.08,0.08s0,0-0.08,0s0,0-0.08,0l-0.08-0.08
		h-0.079l0,0v0.08l0,0c0,0,0,0-0.08,0c0,0,0,0-0.08,0s0.08,0,0,0s-0.08,0-0.08,0l0,0c0,0,0,0,0,0.08l0,0c0,0,0,0,0,0.08v0.079l0,0
		l0,0h-0.08l0,0h-0.08c0,0,0,0-0.08-0.079c0-0.08,0,0,0-0.08c0,0,0,0,0-0.08c-0.08-0.08-0.08-0.08-0.08-0.08l0,0v0.08l0,0l0,0v0.08
		c0,0.08,0,0.08,0,0.08l0,0l0,0l0,0l0,0h-0.08c0,0,0-0.08-0.08,0h-0.079c0,0.079,0,0.159,0,0.159l0,0v0.08v0.08v0.08l0,0v0.08
		c0,0-0.08,0.08,0,0c0-0.08,0,0,0-0.08v-0.08c0,0,0,0,0-0.08s0,0-0.08-0.08c-0.08-0.079-0.08-0.079-0.08-0.079h-0.08v0.079v0.08
		v0.08c0,0,0,0.08-0.08,0.08h-0.08v0.16c-0.08,0-0.08,0-0.08,0c0-0.08,0,0,0-0.08s0-0.08-0.08-0.08l0,0c-0.08,0,0-0.08-0.08,0v0.08
		v0.08l-0.08,0.08l0,0l0,0c0,0,0,0,0,0.08s0,0.08,0,0.08h-0.08h-0.079c-0.08,0-0.08,0-0.08,0s0,0-0.08,0s0,0-0.08,0c0,0-0.08,0,0,0
		s0.08,0,0.08-0.08s0,0,0-0.08s0-0.08,0.08-0.08s0,0,0.08-0.08l0.079-0.08l0,0c0,0,0.08,0,0.08-0.08s0-0.08,0-0.08s0,0-0.08,0
		c-0.079,0-0.079,0-0.079,0s0.079,0.08-0.08-0.08c-0.88,0.641-0.88,0.641-0.88,0.641h-0.08v0.08v0.079v0.08c0,0,0,0,0,0.08l0,0v0.08
		c0,0,0,0-0.08,0s-0.08,0-0.08,0s0,0,0-0.08c0,0,0,0-0.08,0l0,0v0.08l0,0l0,0l0,0c-0.08,0-0.08,0-0.08,0l0,0c0-0.08,0,0,0-0.08
		s0-0.08,0-0.08s0,0.08,0,0s0-0.08-0.08-0.08s-0.08,0-0.08,0s0,0,0,0.08s0,0.08,0,0.08l0,0v0.08l0,0l0,0c-0.08,0,0,0-0.08,0
		c0,0,0,0-0.08,0l0,0v-0.08c0,0,0,0,0-0.08c0,0,0,0,0-0.08c0-0.079,0,0,0-0.079c0,0,0,0,0-0.08c0,0,0,0,0-0.08s0,0,0-0.08
		s0,0,0-0.08c-0.079-0.08,0-0.08-0.079-0.08l0,0l0,0h-0.08l0,0l0,0v0.08l0,0c0,0,0-0.08,0,0s0,0.08,0,0.08v0.08l0,0l0,0h-0.08
		c0,0,0-0.08,0,0s0,0.08,0,0.08v0.08v0.079c0,0,0,0,0,0.08l0,0l0,0c0,0,0,0-0.08,0.08l0,0c0,0,0,0-0.08,0s-0.08,0-0.08,0l0,0v-0.16
		c0,0,0.08-0.079,0-0.079s-0.16,0-0.16,0l0,0l0,0l0,0l-0.08-0.08l0,0l0,0l-0.08,0.08v0.079l0,0h-0.079c0,0,0,0-0.08,0
		s-0.08,0-0.08,0l0,0v-0.079c0,0,0,0,0-0.08s0,0,0-0.08l0,0c0,0,0,0,0.08,0h0.08c0-0.08,0-0.08,0-0.08s0,0,0-0.08s0,0,0-0.08l0,0
		v-0.08l0,0l0.079-0.08h0.08c0,0,0,0,0.08,0l0,0c0,0,0,0,0.08,0c0-0.08,0,0,0-0.08v-0.08c0,0,0,0,0-0.08
		c-0.08-0.079-0.08-0.079-0.08-0.079v-0.08l0,0l-0.08-0.08l0,0v0.08v0.08v0.079h-0.08l0,0l0,0h-0.079c0,0,0,0-0.08,0s-0.08,0-0.08,0
		l0,0c0,0,0,0-0.08,0.08l0,0l-0.08-0.08c0,0,0,0,0-0.079v-0.08l0.08-0.08l0,0c0,0,0,0,0-0.08s0-0.08,0-0.08l0,0
		c0-0.08,0-0.08,0-0.08v0.24v0.08c0,0.08,0,0.08,0,0.08l-0.08,0.079h-0.08c0,0-0.08,0-0.16,0s0,0,0,0s0,0,0,0.08v0.08v0.08v0.08l0,0
		h-0.08h-0.16h-0.079c0,0,0,0,0-0.08v-0.08l0,0v-0.08l0,0l0,0c0-0.08,0-0.08,0-0.08s0,0,0-0.079c0-0.08,0-0.08,0.079-0.16h0.08
		c0,0,0.08-0.08,0-0.08s-0.08,0-0.08,0l0,0h-0.079h-0.08c0,0,0,0,0-0.08c0,0,0,0,0-0.08l0,0c0,0,0.08,0,0.08-0.08s0,0,0,0l0,0h-0.08
		l0,0h-0.08c0,0,0,0-0.08,0s0,0,0,0s0,0-0.08,0s-0.08,0-0.08,0l0,0c0,0,0,0.08,0,0s0,0,0-0.08s0-0.08,0-0.08s0,0,0-0.08
		c0,0,0.08,0,0.08-0.08c0,0,0,0,0-0.08c0,0,0-0.08,0.08-0.08c0,0,0,0,0.08,0s0.08,0,0.08,0l0,0l0,0l0,0l0,0c0-0.079,0,0,0-0.079l0,0
		c0-0.08,0-0.08,0-0.08s-0.08-0.08,0-0.08c0,0,0,0,0.08,0c0.079,0,0.079,0,0.079,0s0,0.08,0,0s0-0.08,0-0.08l-0.079-0.08v-0.08
		c0,0,0,0,0-0.08s0.079-0.08,0.079-0.08s0,0,0.08,0l0,0c0,0,0,0-0.08,0h-0.079l0,0h-0.08h-0.08v0.08l0,0h-0.08c0,0,0,0-0.08,0
		s0,0,0-0.08s0-0.08,0-0.08s0,0,0-0.08s0-0.08,0-0.08v-0.079l0,0l-0.08,0.079l0,0l0,0c0,0,0,0-0.08,0c0,0,0,0-0.08,0.08
		c0,0,0,0-0.08,0c-0.079,0-0.079,0-0.079,0l0,0l-0.08,0.08l0,0h-0.08c0,0,0,0.08,0,0s0-0.08-0.08-0.16l0,0h-0.08l-0.08,0.08l0,0
		c-0.08,0-0.08-0.08-0.08-0.08s0,0,0-0.079c0-0.081-0.08,0,0-0.081c0.08-0.08,0,0,0.08-0.08s0,0,0.08-0.08c0-0.08,0,0,0-0.08
		c0.08-0.08,0.08,0,0.08-0.08s0,0,0,0c0-0.08,0-0.08,0-0.08c0-0.08,0-0.08,0.08-0.08c0,0,0,0,0.08,0l0,0c0,0,0,0.08,0.08,0
		c0-0.08,0.079,0,0-0.08c0-0.08-0.08-0.08-0.08-0.08v-0.08c0,0,0,0,0-0.08c0-0.08,0-0.08,0-0.08s0,0,0-0.08c0,0,0,0,0-0.08
		c0,0-0.08,0-0.08-0.08s0.08-0.08,0-0.08c0,0,0,0-0.08,0s-0.08,0-0.08,0v-0.08c0,0,0.08-0.08,0.08-0.16l0.08-0.16l0,0
		c0,0-0.08,0-0.16,0s-0.16,0.08-0.16,0.08s-0.56,0.16-0.56,0.08s0-0.08,0-0.08l0,0l0.079-0.08c0,0,0.08,0,0.16,0s0,0.08,0,0
		s0-0.08,0-0.08s0,0,0-0.08c0-0.08,0,0,0-0.08h0.16l0,0h0.08v-0.08h0.08l-0.08-0.08c0,0,0,0.08,0,0s0,0,0-0.08s0,0,0-0.08
		c0-0.08,0,0,0-0.08c0-0.08,0,0,0-0.08s0-0.08,0-0.08l-0.08,0.08l0,0c0,0,0,0,0,0.08c0,0,0,0,0,0.08c0,0,0,0,0,0.08s0,0.08,0,0.08
		s0.08,0,0,0s-0.08,0.08-0.08,0l0,0l0,0c0-0.08,0-0.08,0-0.08l0,0l0,0c-0.08-0.08-0.08-0.08-0.08-0.08c-0.08,0-0.08,0-0.08,0l0,0
		h-0.08h-0.079c0,0-0.08,0.08,0,0c0.079-0.08,0.079-0.16,0.079-0.16h0.08c0,0,0,0,0.08-0.08l0.08-0.08c0-0.08,0,0,0-0.08
		s0-0.08,0-0.08l0,0c0.08-0.08,0.08,0,0.08-0.08l0,0c0-0.08,0,0,0-0.08s0-0.08,0-0.08s0,0,0-0.08c0.16,0,0.16,0,0.16,0s0,0,0.08,0
		c0,0.08,0.08,0.08,0.08,0.08l0,0h0.08c0-0.08,0,0,0-0.08s0-0.08,0-0.08l0,0h0.08v0.08c0,0,0,0.08,0.079,0.08c0,0,0,0,0.08,0
		s0,0,0.08,0h0.08c-0.16-0.08-0.16-0.08-0.16-0.16s0.08-0.08,0.08-0.08l0.08-0.08l0.08-0.08c0-0.08,0-0.08,0-0.08
		c-0.08,0.08-0.08,0.08-0.08,0.08h-0.08c0,0,0,0,0-0.08l0,0c0-0.08-0.08,0,0-0.08c0-0.08-0.08-0.08,0-0.08s0.08-0.08,0.08-0.08h0.08
		c0.08,0,0.08,0,0.08,0v-0.08c0,0,0-0.08,0.08-0.16s0.16-0.08,0.16-0.08c0.08,0,0.08,0,0.08,0s0,0,0-0.08s0-0.08,0-0.08
		c0-0.08,0-0.08,0-0.08s0,0,0-0.08c0,0,0-0.08-0.08-0.08s-0.08,0,0-0.08c0-0.08,0-0.08,0-0.08s0,0,0-0.08s0-0.08,0-0.08s0,0,0.08,0
		h0.079l0,0c0,0,0,0,0.08,0.08c0.08,0,0.08,0.08,0.08,0c0,0,0,0,0.08-0.08c0.08-0.08,0-0.08,0.08-0.08c0,0,0,0,0.08,0l0,0v0.08
		c0,0,0,0,0,0.08s0.08,0,0.08,0.08h0.08c0,0,0,0.16,0,0c0.08-0.16,0-0.16,0.08-0.16h0.08l0.08-0.08v-0.08c0,0,0,0,0-0.08
		s-0.08-0.08,0-0.08c0.079,0,0,0,0.079,0l0.16-0.08c0,0,0,0,0-0.08l0,0h-0.16c0,0,0,0-0.079,0l0,0h-0.08v0.08h-0.08l0,0l-0.08,0.08
		h-0.08c0,0,0,0,0-0.08s0-0.08,0-0.08s-0.08,0-0.08-0.08v-0.08c0,0,0,0,0-0.08l0,0c0-0.08-0.08,0-0.08-0.08s-0.08-0.16-0.08-0.16
		s0,0-0.08-0.08c0,0-0.08,0,0-0.08h0.08h0.08l0.08,0.08l0.08,0.08h0.08c0-0.08,0.08-0.08,0.08-0.08h0.16h0.079h0.08l0.08-0.08h0.08
		v-0.08l0,0v-0.08c0,0,0,0,0-0.08s0.08,0,0-0.08c0-0.08,0-0.08,0-0.08s0-0.08,0,0c0,0.08,0,0.08-0.08,0.08l-0.08,0.08l0,0
		c0,0-0.08,0-0.08-0.08s0-0.08,0-0.16c0-0.08,0,0,0-0.08s0.08-0.08,0-0.08c-0.079,0-0.079,0-0.079,0h-0.08l0,0c0,0,0,0,0,0.08
		s0,0.08,0,0.08s-0.08,0.08-0.08,0c0-0.08,0,0,0-0.08s0,0,0-0.08s0,0,0-0.08s0.08,0,0.08-0.08s0-0.08,0-0.08h-0.08
		c0,0,0,0.08-0.08,0.08c0,0,0,0.08-0.08,0s0,0.08-0.08-0.08c-0.08-0.08,0-0.08-0.08-0.08s-0.4-0.24-0.4-0.32s0-0.08,0-0.08
		c0.08-0.08,0.08-0.08,0.08-0.08s0-0.08,0.08,0c0.08,0.08,0.08,0,0.08,0s0.08,0,0.16,0c0,0,0-0.08,0.08-0.08s0.08,0,0.08,0h0.08
		v0.08v0.08l0.08,0.08l0.079,0.08c0,0,0,0,0,0.08s0.08,0.08,0.08,0.08s0,0.08,0,0s0,0,0-0.08s0-0.08,0-0.08l0,0h0.08l0.08,0.08l0,0
		l0.08,0.08l0,0l0,0l0,0h0.08v0.08h0.08c0,0,0,0,0-0.08s0.08,0,0-0.08c0-0.08,0-0.08-0.08-0.08h-0.08l0,0l-0.08-0.08v-0.08v-0.08
		c0,0,0.08,0,0,0c-0.08-0.08-0.08,0-0.08-0.08l-0.08-0.08c0,0,0-0.08-0.08-0.08c-0.079,0-0.079-0.08-0.079-0.08
		c0.079,0,0.239,0,0.239,0s0-0.08,0,0c0.08,0,0.08,0,0.08,0s0,0,0.08-0.08h0.08c0,0,0,0,0,0.08c0,0,0,0,0,0.08s0.08,0.08,0.08,0.08
		s0.08,0,0.08-0.08s-0.08-0.16-0.08-0.16v-0.08l0.08-0.08c0,0,0,0,0,0.08s0,0,0,0.08s0,0.16,0.08,0.16c0,0,0,0.08,0.08-0.08
		c0-0.08,0-0.08,0-0.08c0.08,0,0.08-0.08,0.08,0c0,0,0,0,0,0.08s0,0.08,0,0.08v0.08h0.079h0.08l0.08,0.08h0.08c0,0,0,0,0-0.08
		s0.08-0.08,0-0.08s-0.08,0-0.08,0c-0.08,0-0.08,0-0.08,0l0,0c0,0-0.08,0,0-0.08s0.08-0.16,0.08-0.16h-0.08c0,0,0,0-0.08,0
		c-0.079,0,0,0-0.079-0.08c-0.08-0.08-0.08,0-0.08-0.08c0,0,0,0,0-0.08c0,0,0.08-0.08,0-0.08s-0.08,0.08-0.08,0s0-0.08,0-0.08
		s0,0,0-0.08v-0.08c0,0-0.08,0-0.08-0.08s0-0.08,0-0.08h-0.08c0,0,0,0,0-0.08s0,0,0-0.08c0,0,0,0,0-0.08s-0.08-0.08,0-0.08
		c0.08-0.08,0-0.08,0.08-0.08s0,0,0.08,0s0-0.08,0.08-0.08s0.08,0,0.08,0l0.159,0.32v0.08v0.08v0.08c0,0,0.08,0,0.08-0.08
		s0-0.08,0-0.08h0.08h0.08l0,0h0.08h0.08l0,0h0.08v0.08h0.08h0.08c0,0,0,0,0.08,0h0.079h0.08h0.08c0,0,0,0,0-0.08s0,0,0-0.08
		l0.08-0.08c0,0,0,0,0,0.08s0,0.08,0,0.08l0.08,0.08h0.16v-0.08c0,0,0.08,0,0.08-0.16c0-0.08,0-0.08-0.08-0.16
		c-0.08-0.08-0.08-0.08-0.08-0.08s0-0.08-0.08-0.08s0-0.08-0.08-0.08s0,0-0.08,0s-0.08,0.08-0.08,0s0,0,0-0.08s0.08,0,0-0.08
		c0-0.08,0-0.08,0-0.08l-0.08-0.08c0,0-0.079-0.08,0-0.08c0-0.08,0-0.08,0.08-0.08s0.08,0.08,0.08,0.08h0.08c0,0,0.16,0.08,0.24,0
		s0.08-0.08,0.08-0.08h0.08h0.08v-0.08l0.079-0.08l0.08-0.08l-0.08,0.16v-0.08v-0.08c0,0,0,0-0.079,0.08c0,0.08,0,0.08,0,0.08h-0.08
		h-0.08c0-0.08,0,0,0-0.08c0-0.08-0.08-0.16-0.08-0.08c0,0,0-0.08,0,0c0,0.08,0,0-0.08,0.08c-0.08,0.08-0.08,0.08-0.08,0.08
		s0,0.08,0,0c-0.08-0.08-0.08-0.08-0.08-0.08l-0.08-0.08v-0.08v-0.08h-0.08l0,0c0,0,0,0.08,0-0.08c0-0.08,0-0.08,0-0.08s0,0,0-0.08
		c0-0.08,0,0,0-0.08c0,0,0-0.08-0.08-0.08c-0.079,0-0.079-0.08-0.079-0.16h0.079h0.16h0.08h0.08h0.08l0.08,0.08l0.08-0.08l0.08-0.08
		h0.08l0.079,0.08l0.08,0.08l0.08,0.08l0,0h0.08v0.16l0.08,0.08v0.08l0,0l0.08-0.08h0.08v0.08c0,0,0.08,0,0.08-0.08s0-0.08,0-0.08
		h-0.08c0,0,0,0.08,0,0c0-0.08,0-0.08,0-0.08s0,0,0-0.08l-0.08-0.08l-0.08-0.08v-0.08c0,0,0,0,0-0.08l0,0h0.08c0,0,0,0,0.08,0
		s0,0,0.08,0s0.08,0,0.08,0s0-0.08,0.08,0c0.08,0.08,0.08,0,0.08,0.08v0.08c0,0,0.079,0,0.079,0.08s0.08,0.08,0.08,0s0,0,0-0.08
		s0,0,0-0.08s-0.08-0.08,0-0.08s0.16,0.08,0.16,0.08h0.08l0,0v0.08l0.08-0.08h0.08h0.08v0.08l0,0l0,0h0.08h0.079v0.08l0.16,0.08
		h0.08l0,0c0,0,0,0,0-0.08s0-0.08,0-0.08l0,0h-0.08h-0.08l0,0c0,0,0,0.08-0.08,0c-0.079-0.08,0-0.08,0-0.08h-0.079
		c0,0,0.079,0.08-0.08,0c-0.08-0.08-0.08-0.08-0.08-0.08h-0.08c0,0,0,0.08,0,0c0-0.08,0-0.08,0-0.08c0-0.08,0.08,0,0-0.08
		s-0.48-0.56-0.48-0.56v-0.08c0,0,0-0.08,0-0.16c0-0.08,0,0-0.079-0.08l0,0c0,0-0.08,0,0-0.08c0-0.08,0-0.08,0-0.08
		s0.079-0.08,0.079,0c0,0,0,0,0.08,0s0,0,0.08,0s0.08,0,0.08,0v0.08l0.08,0.08c0,0,0-0.08,0,0h0.08c0,0,0-0.08,0.08,0l0.08,0.08
		l0.08,0.08l0,0l0.08,0.08h0.079l0.08,0.08h0.08h0.24l0,0c0,0,0,0,0-0.08c0,0,0.08,0,0-0.08c-0.08,0-0.16,0-0.16,0h-0.08h-0.08
		v-0.08v-0.08l-0.08-0.08l0,0c0,0,0,0,0-0.08s0-0.08,0-0.08s0.08-0.08,0-0.08c-0.079,0-0.079,0-0.079,0h-0.08c0,0-0.08,0.08-0.08,0
		s0-0.16,0-0.16s0,0,0-0.08l-0.08-0.08l0,0l0,0v-0.08l0,0l0.08-0.08h0.08h0.08l0,0l0.079,0.08v0.08v0.08c0,0,0,0,0.08,0l0,0v0.08
		l0.08,0.08l0.08,0.08l0.08,0.08l0,0c0,0,0,0,0-0.08s0-0.08,0-0.08l0,0c0,0,0-0.08,0.08,0c0.08,0.08,0.08,0.08,0.08,0.08v0.16v0.08
		l0,0h0.08c0,0,0-0.08,0.08-0.08h0.08l0,0v0.08h0.08c0,0,0-0.08,0.079-0.08c0.08,0,0.08,0,0.08,0h0.08c0,0,0,0,0-0.08
		c-0.08,0-0.08,0-0.08,0h-0.08h-0.079l-0.08-0.08v-0.16l0,0l0.159-0.4l0,0c0,0,0.08,0-0.079,0c-0.08,0-0.08,0-0.08,0s0,0-0.08,0
		s-0.08,0.08-0.08,0s0-0.08,0-0.08s0,0,0.08,0s0,0,0,0l0,0c0,0,0,0-0.08-0.08c-0.08-0.08-0.08-0.08-0.08-0.08s-0.08-0.08-0.08-0.16
		v-0.08l-0.08-0.08c0,0,0,0,0-0.08s0-0.08,0-0.08l0,0l0.08-0.08l0.08-0.08l0,0l0.16,0.16h0.08l0.08,0.08v0.08v0.08
		c0,0.08,0,0.08,0,0.08l0.079,0.08c0,0,0,0,0.08-0.08l0.16-0.08c0,0,0.08-0.08,0.08-0.16s0,0,0-0.08s0,0,0,0c0-0.08,0,0,0-0.08
		s0,0,0-0.08s0.08,0,0.08-0.08s-0.08,0,0-0.08s0.08,0,0.08-0.16c0-0.08-0.08-0.08,0-0.08s0.08,0,0.08,0l0.08,0.16v0.08v0.08h0.08
		l0.079-0.08h0.16l-0.08-0.08l0,0l0.16-0.16l0.16-0.08c0,0,0.08,0.08,0.08-0.08c0-0.08,0-0.16,0-0.16h-0.16c0,0-0.08,0.16-0.08,0
		c0-0.16,0-0.16,0-0.16l0.08-0.16l0.08-0.08l0.08-0.08l0.08-0.08l0.08-0.16l0.08-0.08v0.08l0.079,0.16l0,0l0.08,0.08h0.08v-0.08
		v-0.08l0.16-0.08l0,0l0.08,0.08c0,0,0,0,0.08,0.08c0.08,0,0.08,0,0.08,0l0,0h0.08l0.159,0.08c0,0,0,0,0.08,0s0,0.08,0.08,0
		c0.08-0.08,0.08-0.08,0.08-0.08l-0.08-0.24c0,0,0,0-0.08-0.08s0-0.08,0-0.08v-0.08c0,0,0,0,0-0.08c0,0,0,0.08,0,0s0-0.08,0-0.16
		v-0.08l0.08-0.08l0.08,0.08v0.08l0.08,0.08l0.08,0.08c0,0,0,0.16,0.08,0c0.08-0.16,0.08-0.16,0.08-0.16h0.08v0.08l0.08,0.16
		c0,0,0,0,0,0.08c0,0.08,0,0.08,0,0.08s0,0,0,0.08c0,0.16,0,0.08,0,0.16s0,0.08,0,0.08s0,0,0.08,0c0.079,0,0.079,0,0.079,0
		s0,0,0,0.08c0,0.08,0,0.08,0,0.08s0,0,0,0.16c0,0.08,0,0.08,0,0.08l0,0l0.16-0.08c0-0.08,0,0,0-0.08s0.08,0,0-0.08s0-0.08,0-0.08
		v-0.08c0.08-0.08,0,0,0.08-0.08s0-0.08,0-0.08l-0.08-0.08v-0.08c0,0,0,0,0-0.08c0-0.08,0-0.08,0-0.08v-0.08c0-0.08,0-0.08,0-0.08
		l0.08-0.16v-0.08h0.08l0.08,0.08c0,0,0,0,0.08,0s0.16-0.08,0.16-0.08l0,0h0.159l0.08-0.08l-0.08-0.08c0,0-0.159,0,0,0
		c0.16-0.08,0.16-0.08,0.16-0.08s-0.08-0.08,0-0.08s0.16,0,0.16,0v0.08c0,0,0.08,0.08,0,0.16c-0.08,0.08,0,0.08,0,0.08
		s0,0.24,0.08,0.08c0.08-0.08,0.08-0.08,0.08-0.08c0.08-0.08,0.16-0.08,0.16-0.08v0.08v0.08c0,0-0.08,0,0,0.08c0.08,0,0.08,0,0.08,0
		s0-0.08,0.079-0.08c0.08,0,0.16,0,0.16,0l0,0l0.08-0.16h0.08c0,0,0,0,0.08,0s0.08,0,0.08,0s0.08-0.08,0,0
		c-0.08,0.08,0,0.08-0.08,0.08c0,0.08,0,0.08,0,0.08s0,0,0,0.08s-0.08,0.08,0,0.08s0.08,0,0.08,0s-0.08-0.08,0.08-0.16
		c0.16,0,0.239,0,0.239,0v0.08c0,0,0.08,0.08,0.16,0.08s0.08,0,0.08,0l0.16-0.16h0.08l0.08,0.08c0,0-0.08,0,0,0.08s0,0.08,0.08,0.08
		s0.08,0,0.08,0h0.08l0.079-0.08c0,0-0.079,0,0-0.08c0.08-0.08,0,0,0.08-0.08c0.08,0,0.08,0,0.08,0s-0.08,0.08,0,0s0-0.08,0.08-0.08
		h0.08c0,0,0.08,0,0.08,0.08l0.08,0.08c0,0,0.08-0.08,0.08,0s0,0.08,0,0.08s0,0-0.08,0.08s-0.08,0.24-0.08,0.24v0.08h0.08h0.08v0.08
		l0,0v0.08l0.239,0.08h0.08l0.08-0.08v-0.16l0.08-0.16l0,0c0,0-0.08,0.08,0,0.08s0,0,0.08,0s0,0,0.08,0
		c0.08-0.08,0.08-0.08,0.08-0.08h0.08c0,0,0,0.08,0,0.16l0,0v0.08v0.08v0.08c0,0.08,0,0.08,0,0.08l0.08,0.08l0.08,0.16
		c0.079,0,0.079,0.24,0.079-0.08c0-0.32,0-0.24,0-0.32c0,0,0-0.08,0.08-0.08s0.08,0,0.08,0h0.08l0.08,0.08l0.08,0.16l0.16,0.08
		c0,0,0.16,0,0.08,0c-0.08-0.08,0.079,0-0.08-0.08c-0.16-0.08-0.08,0-0.16-0.08c0-0.08-0.08,0,0-0.08c0-0.08,0-0.08,0-0.08
		s0.08,0.08,0.08-0.08c0-0.08,0,0,0-0.08s0-0.08,0-0.08l0.08-0.08c0,0,0.08,0,0.08,0.08c0,0.08,0,0,0,0.08
		c0.079,0.08,0,0.16,0.079,0.08c0.08-0.08,0.08,0,0.08-0.08s0-0.08,0-0.08l0.16-0.08l0.08,0.08c0,0,0.08,0,0.16-0.08
		c0.08-0.08,0-0.08,0-0.08s-0.08,0-0.08-0.08s-0.08,0,0-0.08s0,0,0.08-0.08s0,0,0.08-0.08c0.08-0.08,0,0,0.08-0.08
		c0.08-0.08,0.08-0.08,0.08-0.08l0.16,0.16h0.079c0,0,0,0,0.08,0s0.08-0.08,0.08-0.08l0.08-0.08c0,0,0,0,0.08,0s0.08,0,0.08,0
		l0.08,0.16c0,0-0.08-0.08,0,0s0,0,0.08,0.08s0.08,0.08,0.08,0.08h0.079c0,0-0.159-0.08,0-0.08c0.16,0,0.16-0.08,0.16,0l0,0
		c0,0.08,0-0.08,0,0.08c0,0.16-0.08,0,0,0.08c0.08,0.08,0.08,0,0.08,0.08c0,0.08,0,0.08,0,0.08v0.08h0.16l0.08-0.08v0.16v0.08v0.08
		c0,0-0.08,0,0,0.08c0.08,0.08,0.08,0,0.08,0.08s0,0.08,0,0.08s0.08,0,0.16,0.08c0.079,0,0.079,0,0.079,0l-0.239,0.4
		c0,0-0.08,0.08,0.08,0.08c0.079,0,0.159,0,0.079,0c0-0.08-0.079-0.08-0.079-0.16c0,0-0.08-0.08,0-0.08c0.079,0,0.079,0,0.079,0
		v-0.08l-0.079-0.08v-0.08c0,0,0.079,0.08,0.079-0.08c0.08-0.16,0,0,0.08-0.16c0.08-0.16,0.08-0.16,0.08-0.16s-0.08-0.16,0-0.08
		c0.08,0,0.08,0,0.08,0s0.08-0.08,0.08,0.08c0,0.16-0.08,0.08,0,0.16c0.08,0.08,0.08,0,0.08,0.08s0,0.08,0,0.08v0.08l0.08,0.24
		l-0.08,0.08l-0.08,0.08c0,0.08-0.08,0,0,0.08c0.08,0,0.08,0,0.08,0l0.16,0.08l0.08,0.08v0.08v0.08v0.08v0.08c0,0-0.08,0,0,0.08
		s0.08,0.08,0.08,0.08c0,0.08,0,0.08,0,0.08l0.079,0.16c0.08,0,0.16,0,0.16,0s0-0.08-0.08-0.16c0-0.16,0-0.16,0-0.16v-0.08
		c0,0,0,0.08,0-0.08c0-0.16,0-0.16,0-0.16s0,0,0-0.08s0-0.08,0-0.08s0,0,0.08-0.08c0,0,0,0.08,0,0s-0.08-0.08,0-0.08s0-0.08,0.08,0
		s0,0,0.08,0.08s-0.08,0,0,0.08c0.08,0,0-0.08,0.08,0s0,0,0.08,0.16c0.08,0.16,0.08,0.16,0.08,0.16s-0.08,0,0,0.16s0,0.08,0,0.08
		l0.16,0.16v0.08v-0.16c0,0,0,0,0.08,0.08c0,0.08,0,0,0,0.08c0.079,0.08,0,0.08,0.079,0.08c0.08,0,0-0.08,0,0.08
		c0.08,0.16,0.08,0.16,0.08,0.16h0.16l0.08-0.08c0,0,0.08,0,0.16,0c0.08,0.08,0.08,0,0.08,0.08s-0.08,0,0,0.08
		c0.08,0.08,0.08,0,0.08,0.08c0,0.08,0.08-0.08,0,0.08c-0.08,0.16,0-0.08,0,0.08s-0.08-0.08,0,0.08c0,0.24,0,0.24,0,0.24
		c0.08,0,0,0.16,0.08,0c0.079-0.16,0-0.16,0.079-0.16c0.08,0,0.08,0,0.16,0s0.08,0.08,0.08,0c0.08,0,0.08-0.08,0.08-0.08h0.08
		l0.16,0.24l-0.08,0.08c0,0-0.08,0,0,0.08s0.08,0,0.08,0.08s0,0,0,0.08c0,0.08-0.08,0,0,0.08c0.08,0-0.08,0.08,0.08,0
		c0.159-0.08-0.08,0,0.159-0.08c0.24-0.08,0.16,0,0.24-0.08c0-0.08,0-0.08,0-0.08s-0.08,0.08,0-0.08c0.08-0.16-0.16-0.16,0.08-0.16
		s0.24-0.08,0.24,0c0,0.08,0,0.08,0,0.08l-0.08,0.16c0,0,0.08-0.08,0.08,0.08c-0.08,0.16,0,0.16-0.08,0.16c-0.08,0.08,0,0-0.08,0.08
		s0.08,0-0.08,0c-0.16,0.08-0.08,0-0.08,0s-0.08,0.16,0,0.16s-0.08,0,0,0.08s-0.08,0.16,0.08,0.08s0.08,0,0.16-0.08
		s0-0.08,0.08-0.08s0,0,0.08,0s0.08,0.08,0.08,0c0-0.16,0,0,0-0.16c0-0.16-0.08-0.08,0-0.16c0.08-0.08-0.08,0.08,0.08-0.08
		c0.159-0.08,0.079,0,0.079,0v-0.08c0,0-0.079-0.08,0.16-0.08c0.24,0.08-0.16,0,0.08,0.08c0.24,0,0.08-0.16,0.16,0s0.24-0.16,0.08,0
		c-0.16,0.24,0.16-0.16,0,0.08c-0.16,0.24-0.16,0.16-0.16,0.16v0.16l-0.08,0.16c0,0,0.08,0,0.08,0.08s0.08,0.08,0,0.08
		c-0.16,0-0.16,0-0.16,0h-0.16c0,0-0.079-0.08-0.079,0c0,0.08,0,0,0,0.08c0,0.08,0.079,0,0,0.08c-0.08,0.08-0.08,0.08-0.08,0.08l0,0
		c0,0-0.08-0.16,0,0.08c0,0.24,0.08-0.08,0.08,0.08c0,0.16,0.079-0.08,0,0.08c-0.08,0.24,0-0.16-0.08,0.08c0,0.24,0,0.16,0,0.16
		v0.08c0,0,0,0.16,0.159,0c0.16-0.16,0,0.16,0.08-0.08c0.08-0.24-0.08,0,0-0.08c0.16-0.16,0.08-0.16,0.16-0.16s0,0,0.08,0
		c0.16,0,0,0,0.16,0s0.08,0.08,0.08,0.08h0.08v-0.16c0,0-0.16,0-0.08-0.08c0.16-0.08,0.08-0.16,0.16-0.08
		c0.079,0.08-0.08,0.08,0.079,0.08c0.16,0,0,0.08,0.16,0s0.08,0,0.16-0.08c0-0.08-0.08,0,0-0.08c0.16,0.24,0.16,0.24,0.16,0.24
		l0.08,0.16c0,0,0,0.08-0.08,0.08v0.16c0,0,0,0,0.08,0s0,0,0.08,0s0.08,0,0.08,0c0,0.08,0,0,0,0.08c0.079,0.08-0.08,0,0,0
		c0.079,0.08,0.079,0.08,0.079,0.08h0.08h0.16h0.16l0.08,0.16c0,0,0,0,0,0.08s0,0.08,0,0.08s0,0,0.08,0.08c0.08,0,0.08,0,0.08,0
		l-0.08,0.08c0,0,0.16,0,0,0.08c-0.16,0-0.16,0-0.16,0v0.16l0.08,0.16h-0.16c0,0.16,0,0.08,0,0.16s-0.08,0.16,0,0.08
		c0.16-0.08,0.08-0.08,0.16-0.08c0.16,0,0.16-0.16,0.16-0.08c0,0.16,0-0.08,0,0.08c0,0.16,0,0.08,0,0.08v0.08h0.16
		c0,0-0.08-0.16,0.079-0.08c0.16,0.08,0.08-0.16,0.16,0c0,0.16,0-0.16,0,0.08v0.16l0.08,0.16v0.08h-0.16c0,0,0-0.08,0,0
		c-0.08,0-0.08-0.08-0.08,0c0,0.08,0,0.08,0,0.08l0,0l-0.079,0.08c0,0-0.08-0.08-0.08,0c0,0.16-0.16,0.08-0.16,0.08l0.08,0.08
		c0,0.08,0.08,0,0,0.08c0,0.08,0,0.08,0,0.08h-0.08c0,0-0.08-0.08-0.08,0c-0.08,0.08-0.08,0-0.08,0.08c0.08,0.08,0.08,0,0.08,0.08
		s0.08,0,0,0.08s-0.08,0.08-0.08,0.08h-0.08c0,0.08,0,0.08,0,0.16c0,0.08,0,0.08-0.08,0.08s0,0,0,0s-0.16-0.16-0.16-0.08
		c0,0.08,0,0.16,0,0.16c0,0.08,0.08,0.08-0.079,0.08c-0.16,0-0.08,0-0.08,0v0.08l-0.24,0.24c0,0-0.16,0.08-0.08,0.16
		s-0.08,0.08,0.08,0.08c0.08,0,0.08,0.08,0.08,0c0.08-0.08-0.08,0,0.08-0.08c0.079-0.08,0-0.08,0.079-0.08c0.16,0,0.08,0,0.08,0
		l0.08,0.08l0.08,0.08c0,0-0.08-0.08,0.08,0s0.08,0.16,0.16,0.08s0.08,0.08,0.08-0.08s0-0.16,0-0.16h0.24l0,0h0.08
		c0.079,0,0.079,0,0.079,0h0.08v-0.08h0.16h0.16c0,0,0.08,0.16,0.08,0c0-0.16,0-0.16,0-0.16s-0.16-0.16,0.08-0.08
		c0.159,0,0.159,0,0.159,0s-0.079,0,0.08,0c0.16,0,0.16,0,0.16,0v0.08c0,0,0,0-0.08,0.08c-0.08,0.08-0.08-0.08-0.08,0.08
		c0,0.08,0,0.08,0,0.08h0.08c0,0,0,0,0.08,0.08s-0.08,0.08-0.08,0.08h0.08h0.16h0.08c0,0,0-0.08,0.08,0
		c0.08,0.16,0.08-0.08,0.08,0.08c0,0.16,0,0.08,0,0.08v0.08c0,0-0.24,0.16-0.08,0.16s-0.16,0.08,0.08,0.08c0.16,0,0-0.08,0.08,0
		c0.159,0.08,0.08,0,0.08,0h0.079c0,0-0.079,0-0.079,0.16c0,0.16-0.08-0.16,0,0.08c0.079,0.24,0-0.16,0,0.08
		c0,0.24,0.079,0.08,0,0.16c-0.08,0.08,0,0,0,0c0,0.16,0,0.16,0,0.16l0.079,0.24c0,0,0-0.08,0,0s-0.079,0.08,0,0.08
		c0.08,0,0,0,0.08,0s0,0.08,0.08,0c0.08-0.16,0.08-0.08,0.08-0.08s0-0.32,0.08-0.08c0.08,0.24-0.08-0.08,0.08,0.16
		c0.16,0.24,0-0.16,0.08,0.08s0.08,0.16,0.08,0.16s0.239,0.16,0,0.08c-0.24-0.08-0.08,0.08-0.08,0.08h-0.08l-0.08-0.08l-0.08,0.08
		v0.08l0.08,0.08l-0.08,0.16h-0.08h-0.08h-0.08c0,0.08-0.079,0.16-0.079,0.16v0.08l-0.16,0.08v0.08h0.08h0.08v0.08v0.16h0.079h0.08
		l0.08,0.16l-0.08,0.08l-0.159,0.08v0.08h-0.16v0.24v0.16v0.08v0.08h0.16c0,0,0,0.08,0.079-0.08c0.08-0.08,0,0,0.08-0.08
		s-0.08-0.08,0-0.08s0.08,0,0.08,0h0.08c0,0-0.08,0,0.08-0.08s-0.16,0.08,0.08,0s-0.08,0,0.08,0c0.239-0.08,0.08-0.08,0.08-0.08
		s0.08-0.16,0.08,0s0.079-0.16,0.079,0.08c0,0.16-0.079,0.08-0.079,0.08v0.08c0,0,0.159-0.16,0.079,0c-0.079,0.16,0,0.08,0,0.08
		v0.08h-0.319l-0.08,0.08c0,0,0,0-0.08,0.08c-0.08,0.08-0.08,0.08-0.08,0.08s0-0.08-0.08,0s-0.08,0,0,0.08c0,0.08,0,0.08,0,0.08l0,0
		c0,0,0,0.16,0.16,0s-0.16,0,0.08-0.08c0.16-0.08,0.08-0.08,0.08-0.08h0.08h0.16c0,0-0.16-0.08,0,0.08
		c0.159,0.16-0.08-0.08,0.079,0.08c0.08,0.16,0.08-0.16,0.08,0.08c0,0.24,0.16,0,0,0.08c-0.159,0.08,0,0.08,0,0.08h-0.08
		c0,0-0.079-0.24-0.079,0c0,0.24,0-0.16-0.08,0.08c0,0.24,0.08-0.16,0,0.08c0,0.08,0,0.08,0,0.08c0,0.08,0.08-0.08,0.08-0.08
		l-0.08,0.16v0.24c0,0-0.16,0.08,0.08,0.08c0.159-0.08-0.08,0.32,0.079,0.08c0.16-0.24,0,0.08,0.16-0.08c0.08-0.24-0.16-0.08,0-0.08
		s0.08-0.08,0.08-0.08l0.32,0.4v0.16c0,0,0.08,0.24,0,0.16c-0.08,0-0.08-0.16-0.08,0s0.08,0.08,0,0.16
		c-0.08,0.08-0.08-0.08-0.08,0.08c0,0.08,0,0.08,0,0.08s0,0,0.08,0c0.16,0,0.08-0.08,0.16,0s0.08,0,0,0.16s0.08-0.08-0.08,0.08
		c-0.16,0.16-0.16,0.16-0.16,0.16l-0.16,0.08l-0.08,0.16c0,0-0.08,0-0.08,0.08s-0.08,0,0,0.08s0.08,0.08,0.08,0.08v0.16h0.08
		l0.08-0.16l0.16-0.08v-0.08c0,0,0-0.16,0.08,0s0.08,0.08,0.08,0.08l0.16,0.16l0.079,0.08c-0.079,0-0.159,0-0.159,0l-0.08,0.08
		c0,0,0.08,0.081,0.16,0.16c0.079,0.08,0,0.16,0.079,0.08c0.08-0.08-0.079-0.159,0.08-0.08c0.08,0.08,0.08,0.08,0.08,0.08l0.08,0.08
		l0.16,0.08l0.08,0.08v0.08l-0.08,0.08h-0.08v0.24v0.08v0.08c0,0,0-0.08,0,0c0,0.079,0,0.079,0,0.079l0.08,0.08v0.08h-0.08h-0.08
		h-0.08v0.08h-0.08h-0.08h-0.079l-0.08,0.08c-0.08,0.08-0.16,0-0.16,0l-0.08,0.08h-0.08l-0.08,0.08c0,0-0.08,0.08-0.08,0
		s0-0.08,0-0.08s0.08-0.08,0-0.08s-0.08-0.08-0.08-0.08h-0.08l-0.079-0.08l-0.08-0.08h-0.08v0.08l0.08,0.08l0.08,0.08v0.08
		l-0.08,0.16h-0.08v0.08l-0.24,0.24l-0.08,0.079v-0.159v-0.08c0,0,0.08,0,0-0.08c-0.08,0,0.08,0-0.08,0c-0.08,0-0.08,0-0.08,0
		l-0.08,0.16l-0.079,0.08c0,0,0-0.08,0,0c0,0.159,0,0.159,0,0.159l0,0l-0.16,0.24l-0.16,0.16c0,0-0.16,0.08-0.16,0s0,0,0-0.08
		s0-0.08,0-0.08h-0.08h-0.08l-0.16,0.08l0.08,0.08v0.08v0.08l-0.08,0.16l-0.08-0.08l-0.079,0.08v0.08c0,0,0.079,0.079-0.08,0.079
		c-0.16,0-0.08,0-0.08,0v0.16l-0.16,0.24h-0.08c0,0,0,0.08-0.08,0.08s-0.08,0-0.08,0s0.08,0-0.08-0.08
		c-0.159-0.08-0.079,0-0.159-0.08c-0.08,0,0.08,0-0.08,0c-0.08,0-0.08,0-0.08,0l0,0v-0.08v-0.08c0,0,0.16-0.08,0-0.08
		s-0.08,0-0.08,0h-0.16h-0.32c0,0,0,0,0-0.08c0-0.079,0.08-0.079,0-0.079c-0.079,0,0,0-0.079,0c-0.08,0,0.079,0-0.08,0
		c-0.16,0-0.08,0-0.08,0h-0.24l-0.08-0.16c0,0,0,0-0.08-0.08s0.08,0-0.08-0.08c-0.08-0.08-0.08-0.08-0.08-0.08s-0.08-0.08-0.08-0.16
		s0-0.08,0-0.08l-0.079-0.08c0,0,0,0-0.08,0s0,0.08-0.08,0s0,0-0.08-0.08c-0.08-0.079-0.08,0.08-0.08-0.079
		c-0.08-0.08-0.08-0.08-0.08-0.08s-0.08,0-0.08,0.08c0,0.079-0.24-0.08-0.24-0.08v-0.16v-0.16l-0.08-0.08c0,0,0.08-0.08-0.079-0.08
		c-0.16,0-0.16,0.24-0.16,0.24s0-0.08,0,0.08c0,0.08,0,0.08,0,0.08c0,0.08,0,0.08,0,0.08v0.079l0.08,0.08c0,0-0.08-0.159-0.16,0.08
		c0,0.24-0.08,0.08-0.08,0.08s0-0.16,0,0.16s0,0.08,0,0.08v0.08v0.16h-0.24c0,0,0.16,0-0.16,0c-0.319-0.08,0.24,0.08-0.079-0.08
		c-0.24-0.08-0.24,0-0.24,0v0.08l-0.16-0.08l0.08,0.16v0.159l-0.16,0.08h-0.08l-0.24-0.08h-0.08v0.16c0,0,0,0-0.08,0
		c-0.079,0-0.079,0-0.079,0h-0.08v-0.08l0.08-0.159h-0.16c0,0,0.08,0.079-0.08,0.159c-0.16,0-0.08,0.08-0.16,0s0-0.08-0.08-0.08
		s0,0-0.16,0c-0.079,0-0.079,0-0.079,0l-0.078-0.399h-0.08l-0.24-0.08l-0.08-0.24l-0.159-0.16h-0.24l0.08,0.16c0,0,0.08,0,0,0.08
		c-0.08,0.16,0,0.08-0.08,0.16s0,0-0.08,0.08s-0.08,0.08-0.08,0.08l-0.08,0.16l-0.16,0.079c0,0,0,0-0.08,0.08c0,0.08,0,0.08,0,0.08
		h-0.159l0.079,0.24h-0.159l-0.08-0.08l-0.24,0.08l0.08-0.24c0,0-0.08,0-0.08-0.08c-0.08-0.08-0.08,0-0.08,0v-0.159h-0.16
		l-0.08,0.159v0.08v0.08l-0.08,0.16l0.08,0.08v0.08l-0.319-0.08h-0.16v-0.08l-0.08-0.16l-0.08-0.08v-0.08l0.08-0.159
		c0-0.08-0.08-0.08-0.08-0.08l-0.08-0.16l0.08-0.16l0.08-0.16l-0.24-0.08l-0.16,0.16H297.9v0.16h-0.16l-0.16-0.08
		c0,0,0,0.16-0.16,0.08c-0.16,0-0.16,0-0.16,0l-0.319-0.24c0,0,0-0.08-0.08-0.16s-0.08-0.08-0.08-0.08l-0.4,0.08h-0.08h-0.319
		l-0.16-0.08h-0.16c0,0-0.32,0-0.479,0.08c-0.16,0-0.16,0-0.16,0s-0.16,0-0.24,0.08
		C294.698,413.665,294.698,413.665,294.619,413.745L294.619,413.745z"/>
</g>
</svg>
